{"title":"River (BBC) 2015 S01E01 x264 RB58.mp4","uid":12569457,"size":661216313,"categoryP":"video","categoryS":"tv_shows","magnet":"?xt=urn:btih:4f452089eb3ce97bd9216f0a6031ca487b1bbacf&amp;dn=River+%28BBC%29+2015+S01E01+x264+RB58.mp4&amp;tr=udp%3A%2F%2Ftracker.leechers-paradise.org%3A6969&amp;tr=udp%3A%2F%2Fzer0day.ch%3A1337&amp;tr=udp%3A%2F%2Fopen.demonii.com%3A1337&amp;tr=udp%3A%2F%2Ftracker.coppersurfer.tk%3A6969&amp;tr=udp%3A%2F%2Fexodus.desync.com%3A6969","seeders":9,"leechers":0,"uploader":"RedBaron58","files":1,"time":1444828341,"description":"River (BBC) 2015 S01E01 x264 mp4\r\n \nhttp://www.imdb.com/title/tt4258440/\r\n\r\nTrailer:\r\n\r\n\r\nPlease be patient My intial upload speed is limited.\r\nThank you for your kind comments and feedback on my other torrents, your feedback is welcome.\r\n\r\n\r\nAbout the Episode:\r\nRespected police officer John River, a gifted cop with a troubled mind, struggles to come to terms \r\nwith the recent loss of a close colleague, and chases a potential suspect across London, \r\nwith tragic consequences. Now at odds with authorities both within and outside of the police service, \r\nRiver finds himself in a precarious position as he seeks to bring closure to the mother of \r\nmurdered teenager Erin Fielding, who blames him for failing to keep his promise to bring her daughter back alive.\r\n \r\nStarring Stellan Skarsgard and Nicola Walker \r\n\r\n\r\nI hope you enjoy.\r\n\r\n\r\nTechnical:\r\n\r\nGeneral\r\nComplete name                            : H:River (BBC) 2015 S01E01 x264 RB58.mp4\r\nFormat                                   : MPEG-4\r\nFormat profile                           : Base Media\r\nCodec ID                                 : isom\r\nFile size                                : 631 MiB\r\nDuration                                 : 57mn 58s\r\nOverall bit rate                         : 1 521 Kbps\r\nWriting application                      : Lavf54.63.104\r\n\r\nVideo\r\nID                                       : 1\r\nFormat                                   : AVC\r\nFormat/Info                              : Advanced Video Codec\r\nFormat profile                           :   \r\nFormat settings, CABAC                   : Yes\r\nFormat settings, ReFrames                : 4 frames\r\nCodec ID                                 : avc1\r\nCodec ID/Info                            : Advanced Video Coding\r\nDuration                                 : 57mn 58s\r\nBit rate                                 : 1 400 Kbps\r\nWidth                                    : 832 pixels\r\nHeight                                   : 468 pixels\r\nDisplay aspect ratio                     : 16:9\r\nFrame rate mode                          : Constant\r\nFrame rate                               : 25.000 fps\r\nColor space                              : YUV\r\nChroma subsampling                       : 4:2:0\r\nBit depth                                : 8 bits\r\nScan type                                : Progressive\r\nBits/(Pixel*Frame)                       : 0.144\r\nStream size                              : 581 MiB (92%)\r\nWriting library                          : x264 core 123 r2189 35cf912\r\nEncoding settings                        : cabac=1 / ref=3 / deblock=1:0:0\r\n\r\nAudio\r\nID                                       : 2\r\nFormat                                   : AAC\r\nFormat/Info                              : Advanced Audio Codec\r\nFormat profile                           : LC\r\nCodec ID                                 : 40\r\nDuration                                 : 57mn 58s\r\nBit rate mode                            : Constant\r\nBit rate                                 : 112 Kbps\r\nChannel(s)                               : 2 channels\r\nChannel positions                        : Front: L R\r\nSampling rate                            : 48.0 KHz\r\nCompression mode                         : Lossy\r\nStream size                              : 46.5 MiB (7%)","torrent":{"xt":"urn:btih:4f452089eb3ce97bd9216f0a6031ca487b1bbacf","amp;dn":"River+%28BBC%29+2015+S01E01+x264+RB58.mp4","amp;tr":["udp%3A%2F%2Ftracker.leechers-paradise.org%3A6969","udp%3A%2F%2Fzer0day.ch%3A1337","udp%3A%2F%2Fopen.demonii.com%3A1337","udp%3A%2F%2Ftracker.coppersurfer.tk%3A6969","udp%3A%2F%2Fexodus.desync.com%3A6969"],"infoHash":"4f452089eb3ce97bd9216f0a6031ca487b1bbacf","infoHashBuffer":{"type":"Buffer","data":[79,69,32,137,235,60,233,123,217,33,111,10,96,49,202,72,123,27,186,207]},"announce":[],"urlList":[]}}